<?xml version="1.0" encoding="UTF-8"?>
<svg width="40px" height="40px" viewBox="0 0 40 40" version="1.1" xmlns="http://www.w3.org/2000/svg" xmlns:xlink="http://www.w3.org/1999/xlink">
    <!-- Generator: Sketch 53.2 (72643) - https://sketchapp.com -->
    <title>Electronica_40x40</title>
    <desc>Created with Sketch.</desc>
    <g id="Electronica_40x40" stroke="none" stroke-width="1" fill="none" fill-rule="evenodd">
        <g id="shutterstock_795280663" transform="translate(-0.640002, 2.759999)">
            <path d="M2.02809651,30.4976669 C2.02809651,32.7720991 3.87244864,34.6170272 6.1476488,34.6170272 L59.1329325,34.6170272 C61.4083246,34.6170272 63.2524848,32.7720991 63.2524848,30.4976669 L2.02809651,30.4976669" id="Fill-54" fill="#B9DBD8"></path>
            <path d="M8.91993699,34.6170272 L6.1476488,34.6170272 C3.87244864,34.6170272 2.02809651,32.7720991 2.02809651,30.4976669 L4.80057671,30.4976669 C4.80057671,32.7720991 6.64454483,34.6170272 8.91993699,34.6170272" id="Fill-55" fill="#D0EAE8"></path>
            <polygon id="Fill-57" fill="#73988E" points="26.7955222 32.460675 38.416131 32.460675 38.416131 30.4976669 26.7955222 30.4976669"></polygon>
            <polygon id="Fill-58" fill="#60BFBF" points="9.033601 30.4976669 56.2469803 30.4976669 56.2469803 2.92377698 9.033601 2.92377698"></polygon>
            <polygon id="Fill-59" fill="#5B5F5C" points="9.033601 2.92377698 56.2469803 2.92377698 56.2469803 0.576000813 9.033601 0.576000813"></polygon>
            <path d="M2.43168054,30.8816669 C2.62444855,32.7617311 4.21747267,34.2330272 6.1476488,34.2330272 L59.1329325,34.2330272 C61.0631086,34.2330272 62.6561327,32.7617311 62.8489007,30.8816669 L2.43168054,30.8816669 Z M59.1329325,35.0010272 L6.1476488,35.0010272 C3.66432063,35.0010272 1.64409649,32.9808031 1.64409649,30.4976669 C1.64409649,30.2855069 1.8159365,30.1136669 2.02809651,30.1136669 L63.2524848,30.1136669 C63.4646448,30.1136669 63.6364848,30.2855069 63.6364848,30.4976669 C63.6364848,32.9808031 61.6162607,35.0010272 59.1329325,35.0010272 L59.1329325,35.0010272 Z" id="Fill-64" fill="#121413"></path>
            <path d="M9.41760103,30.1136669 L55.8629803,30.1136669 L55.8629803,0.960000839 L9.41760103,0.960000839 L9.41760103,30.1136669 Z M56.2469803,30.8816669 L9.033601,30.8816669 C8.82144099,30.8816669 8.64960097,30.7096349 8.64960097,30.4976669 L8.64960097,0.576000813 C8.64960097,0.363840798 8.82144099,0.192000786 9.033601,0.192000786 L56.2469803,0.192000786 C56.4591403,0.192000786 56.6309803,0.363840798 56.6309803,0.576000813 L56.6309803,30.4976669 C56.6309803,30.7096349 56.4591403,30.8816669 56.2469803,30.8816669 L56.2469803,30.8816669 Z" id="Fill-65" fill="#121413"></path>
            <path d="M27.1795223,32.211651 L38.100291,32.211651 L38.100291,30.8816669 L27.1795223,30.8816669 L27.1795223,32.211651 Z M38.484291,32.9796511 L26.7955222,32.9796511 C26.5835542,32.9796511 26.4115222,32.8076191 26.4115222,32.595651 L26.4115222,30.4976669 C26.4115222,30.2855069 26.5835542,30.1136669 26.7955222,30.1136669 L38.484291,30.1136669 C38.6964511,30.1136669 38.8682911,30.2855069 38.8682911,30.4976669 L38.8682911,32.595651 C38.8682911,32.8076191 38.6964511,32.9796511 38.484291,32.9796511 L38.484291,32.9796511 Z" id="Fill-66" fill="#121413"></path>
            <path d="M56.2469803,3.307777 L9.033601,3.307777 C8.82144099,3.307777 8.64960097,3.13574499 8.64960097,2.92377698 C8.64960097,2.71161696 8.82144099,2.53958495 9.033601,2.53958495 L56.2469803,2.53958495 C56.4591403,2.53958495 56.6309803,2.71161696 56.6309803,2.92377698 C56.6309803,3.13574499 56.4591403,3.307777 56.2469803,3.307777" id="Fill-67" fill="#121413"></path>
            <polyline id="Fill-78" fill="#101110" points="9.033601 19.7210901 9.033601 18.9477141 9.41760103 18.9025941 9.41760103 19.6757781 9.033601 19.7210901"></polyline>
            <polyline id="Fill-89" fill="#101110" points="9.41760103 5.55091316 9.033601 5.36966515 9.033601 4.52064109 9.41760103 4.7016971 9.41760103 5.55091316"></polyline>
            <polyline id="Fill-97" fill="#101110" points="35.5576348 0.960000839 32.2202906 0.960000839 32.1686426 0.576000813 35.9170589 0.576000813 35.5576348 0.960000839"></polyline>
            <polyline id="Fill-98" fill="#101110" points="33.3603867 3.307777 32.5363226 3.307777 32.4330266 2.53958495 34.0792347 2.53958495 33.3603867 3.307777"></polyline>
        </g>
    </g>
</svg>